<mxfile host="Electron" agent="Mozilla/5.0 (Windows NT 10.0; Win64; x64) AppleWebKit/537.36 (KHTML, like Gecko) draw.io/24.7.5 Chrome/126.0.6478.183 Electron/31.3.0 Safari/537.36" version="24.7.5">
  <diagram name="Basic Routing: Categorized Complaints to Departments" id="Lbcb5od24ydEMMLrYuP5">
    <mxGraphModel dx="880" dy="572" grid="0" gridSize="10" guides="1" tooltips="1" connect="1" arrows="1" fold="1" page="1" pageScale="1" pageWidth="850" pageHeight="1100" math="0" shadow="0">
      <root>
        <mxCell id="0" />
        <mxCell id="1" parent="0" />
        <mxCell id="Af3uR9SBYssmEKGf-Lcz-1" value="Constituent" style="rounded=0;whiteSpace=wrap;html=1;movable=1;resizable=1;rotatable=1;deletable=1;editable=1;locked=0;connectable=1;" parent="1" vertex="1">
          <mxGeometry x="44.2" y="480" width="100" height="40" as="geometry" />
        </mxCell>
        <mxCell id="Af3uR9SBYssmEKGf-Lcz-2" value="Complaint" style="rounded=0;whiteSpace=wrap;html=1;movable=1;resizable=1;rotatable=1;deletable=1;editable=1;locked=0;connectable=1;" parent="1" vertex="1">
          <mxGeometry x="191" y="480" width="100" height="40" as="geometry" />
        </mxCell>
        <mxCell id="Af3uR9SBYssmEKGf-Lcz-4" value="Respective Department" style="rounded=0;whiteSpace=wrap;html=1;movable=1;resizable=1;rotatable=1;deletable=1;editable=1;locked=0;connectable=1;" parent="1" vertex="1">
          <mxGeometry x="561" y="480" width="150" height="40" as="geometry" />
        </mxCell>
        <mxCell id="Af3uR9SBYssmEKGf-Lcz-5" style="edgeStyle=orthogonalEdgeStyle;rounded=0;orthogonalLoop=1;jettySize=auto;html=1;exitX=1;exitY=0.5;exitDx=0;exitDy=0;entryX=0;entryY=0.5;entryDx=0;entryDy=0;movable=1;resizable=1;rotatable=1;deletable=1;editable=1;locked=0;connectable=1;" parent="1" source="Af3uR9SBYssmEKGf-Lcz-1" target="Af3uR9SBYssmEKGf-Lcz-2" edge="1">
          <mxGeometry relative="1" as="geometry" />
        </mxCell>
        <mxCell id="Af3uR9SBYssmEKGf-Lcz-6" style="edgeStyle=orthogonalEdgeStyle;rounded=0;orthogonalLoop=1;jettySize=auto;html=1;exitX=1;exitY=0.5;exitDx=0;exitDy=0;movable=1;resizable=1;rotatable=1;deletable=1;editable=1;locked=0;connectable=1;" parent="1" source="Af3uR9SBYssmEKGf-Lcz-2" target="Af3uR9SBYssmEKGf-Lcz-53" edge="1">
          <mxGeometry relative="1" as="geometry">
            <mxPoint x="341" y="500" as="targetPoint" />
          </mxGeometry>
        </mxCell>
        <mxCell id="Af3uR9SBYssmEKGf-Lcz-7" style="edgeStyle=orthogonalEdgeStyle;rounded=0;orthogonalLoop=1;jettySize=auto;html=1;exitX=1;exitY=0.5;exitDx=0;exitDy=0;entryX=0;entryY=0.5;entryDx=0;entryDy=0;movable=1;resizable=1;rotatable=1;deletable=1;editable=1;locked=0;connectable=1;" parent="1" source="Af3uR9SBYssmEKGf-Lcz-53" target="Af3uR9SBYssmEKGf-Lcz-4" edge="1">
          <mxGeometry relative="1" as="geometry">
            <mxPoint x="461" y="500" as="sourcePoint" />
          </mxGeometry>
        </mxCell>
        <mxCell id="Af3uR9SBYssmEKGf-Lcz-11" value="Assistant &amp;amp; Representative" style="rounded=0;whiteSpace=wrap;html=1;movable=1;resizable=1;rotatable=1;deletable=1;editable=1;locked=0;connectable=1;" parent="1" vertex="1">
          <mxGeometry x="322" y="623" width="180" height="40" as="geometry" />
        </mxCell>
        <mxCell id="Af3uR9SBYssmEKGf-Lcz-14" style="edgeStyle=orthogonalEdgeStyle;rounded=0;orthogonalLoop=1;jettySize=auto;html=1;exitX=0.5;exitY=1;exitDx=0;exitDy=0;entryX=0.5;entryY=0;entryDx=0;entryDy=0;movable=1;resizable=1;rotatable=1;deletable=1;editable=1;locked=0;connectable=1;" parent="1" source="Af3uR9SBYssmEKGf-Lcz-53" target="Af3uR9SBYssmEKGf-Lcz-11" edge="1">
          <mxGeometry relative="1" as="geometry">
            <mxPoint x="480" y="640" as="sourcePoint" />
            <Array as="points">
              <mxPoint x="412" y="578" />
              <mxPoint x="412" y="607" />
              <mxPoint x="412" y="620" />
            </Array>
          </mxGeometry>
        </mxCell>
        <mxCell id="Af3uR9SBYssmEKGf-Lcz-44" value="Constituent" style="rounded=0;whiteSpace=wrap;html=1;movable=1;resizable=1;rotatable=1;deletable=1;editable=1;locked=0;connectable=1;" parent="1" vertex="1">
          <mxGeometry x="44.2" y="340" width="100" height="40" as="geometry" />
        </mxCell>
        <mxCell id="Af3uR9SBYssmEKGf-Lcz-45" value="Complaint" style="rounded=0;whiteSpace=wrap;html=1;movable=1;resizable=1;rotatable=1;deletable=1;editable=1;locked=0;connectable=1;" parent="1" vertex="1">
          <mxGeometry x="194.2" y="340" width="100" height="40" as="geometry" />
        </mxCell>
        <mxCell id="Af3uR9SBYssmEKGf-Lcz-46" value="Assistant &amp;amp; Representative" style="rounded=0;whiteSpace=wrap;html=1;movable=1;resizable=1;rotatable=1;deletable=1;editable=1;locked=0;connectable=1;" parent="1" vertex="1">
          <mxGeometry x="344.2" y="340" width="167.8" height="40" as="geometry" />
        </mxCell>
        <mxCell id="Af3uR9SBYssmEKGf-Lcz-47" value="Respective Department" style="rounded=0;whiteSpace=wrap;html=1;movable=1;resizable=1;rotatable=1;deletable=1;editable=1;locked=0;connectable=1;" parent="1" vertex="1">
          <mxGeometry x="564.2" y="340" width="150" height="40" as="geometry" />
        </mxCell>
        <mxCell id="Af3uR9SBYssmEKGf-Lcz-48" style="edgeStyle=orthogonalEdgeStyle;rounded=0;orthogonalLoop=1;jettySize=auto;html=1;exitX=1;exitY=0.5;exitDx=0;exitDy=0;entryX=0;entryY=0.5;entryDx=0;entryDy=0;movable=1;resizable=1;rotatable=1;deletable=1;editable=1;locked=0;connectable=1;" parent="1" source="Af3uR9SBYssmEKGf-Lcz-44" target="Af3uR9SBYssmEKGf-Lcz-45" edge="1">
          <mxGeometry relative="1" as="geometry" />
        </mxCell>
        <mxCell id="Af3uR9SBYssmEKGf-Lcz-49" style="edgeStyle=orthogonalEdgeStyle;rounded=0;orthogonalLoop=1;jettySize=auto;html=1;exitX=1;exitY=0.5;exitDx=0;exitDy=0;entryX=0;entryY=0.5;entryDx=0;entryDy=0;movable=1;resizable=1;rotatable=1;deletable=1;editable=1;locked=0;connectable=1;" parent="1" source="Af3uR9SBYssmEKGf-Lcz-45" target="Af3uR9SBYssmEKGf-Lcz-46" edge="1">
          <mxGeometry relative="1" as="geometry" />
        </mxCell>
        <mxCell id="Af3uR9SBYssmEKGf-Lcz-50" style="edgeStyle=orthogonalEdgeStyle;rounded=0;orthogonalLoop=1;jettySize=auto;html=1;exitX=1;exitY=0.5;exitDx=0;exitDy=0;entryX=0;entryY=0.5;entryDx=0;entryDy=0;movable=1;resizable=1;rotatable=1;deletable=1;editable=1;locked=0;connectable=1;" parent="1" source="Af3uR9SBYssmEKGf-Lcz-46" target="Af3uR9SBYssmEKGf-Lcz-47" edge="1">
          <mxGeometry relative="1" as="geometry" />
        </mxCell>
        <mxCell id="Af3uR9SBYssmEKGf-Lcz-51" value="&lt;b&gt;&lt;font style=&quot;font-size: 18px;&quot;&gt;Route complaint to Representative &amp;amp; Assistant(If any) then route to Respective department&lt;/font&gt;&lt;/b&gt;" style="text;html=1;align=left;verticalAlign=middle;whiteSpace=wrap;rounded=0;movable=1;resizable=1;rotatable=1;deletable=1;editable=1;locked=0;connectable=1;" parent="1" vertex="1">
          <mxGeometry x="44.2" y="282" width="787.8" height="47" as="geometry" />
        </mxCell>
        <mxCell id="Af3uR9SBYssmEKGf-Lcz-52" value="&lt;b&gt;&lt;font style=&quot;font-size: 18px;&quot;&gt;Route complaint to Departmet(if Categorized) / Representative &amp;amp; Assistant(If any)&lt;/font&gt;&lt;/b&gt;" style="text;html=1;align=left;verticalAlign=middle;whiteSpace=wrap;rounded=0;movable=1;resizable=1;rotatable=1;deletable=1;editable=1;locked=0;connectable=1;" parent="1" vertex="1">
          <mxGeometry x="44.2" y="412" width="779.8" height="47" as="geometry" />
        </mxCell>
        <mxCell id="Af3uR9SBYssmEKGf-Lcz-53" value="Categorized Complaint" style="rhombus;whiteSpace=wrap;html=1;movable=1;resizable=1;rotatable=1;deletable=1;editable=1;locked=0;connectable=1;" parent="1" vertex="1">
          <mxGeometry x="357" y="462" width="111" height="75" as="geometry" />
        </mxCell>
        <mxCell id="Af3uR9SBYssmEKGf-Lcz-54" value="Yes" style="text;html=1;align=center;verticalAlign=middle;resizable=1;points=[];autosize=1;strokeColor=none;fillColor=none;movable=1;rotatable=1;deletable=1;editable=1;locked=0;connectable=1;" parent="1" vertex="1">
          <mxGeometry x="462" y="476" width="38" height="26" as="geometry" />
        </mxCell>
        <mxCell id="Af3uR9SBYssmEKGf-Lcz-55" value="No" style="text;html=1;align=center;verticalAlign=middle;resizable=1;points=[];autosize=1;strokeColor=none;fillColor=none;movable=1;rotatable=1;deletable=1;editable=1;locked=0;connectable=1;" parent="1" vertex="1">
          <mxGeometry x="405" y="541" width="33" height="26" as="geometry" />
        </mxCell>
        <mxCell id="Af3uR9SBYssmEKGf-Lcz-56" value="&lt;b&gt;&lt;font style=&quot;font-size: 18px;&quot;&gt;Route complaint to&amp;nbsp;&lt;/font&gt;&lt;/b&gt;&lt;b&gt;&lt;font style=&quot;font-size: 18px;&quot;&gt;Representative &amp;amp; Assistant allow them to Update Category(If Necessary) then Route to respective department&lt;/font&gt;&lt;/b&gt;&lt;b&gt;&lt;font style=&quot;font-size: 18px;&quot;&gt;&amp;nbsp;&lt;/font&gt;&lt;/b&gt;" style="text;html=1;align=left;verticalAlign=middle;whiteSpace=wrap;rounded=0;movable=1;resizable=1;rotatable=1;deletable=1;editable=1;locked=0;connectable=1;" parent="1" vertex="1">
          <mxGeometry x="34.2" y="709" width="794.8" height="47" as="geometry" />
        </mxCell>
        <mxCell id="Af3uR9SBYssmEKGf-Lcz-69" value="Constituent" style="rounded=0;whiteSpace=wrap;html=1;movable=1;resizable=1;rotatable=1;deletable=1;editable=1;locked=0;connectable=1;" parent="1" vertex="1">
          <mxGeometry x="35" y="790" width="100" height="40" as="geometry" />
        </mxCell>
        <mxCell id="Af3uR9SBYssmEKGf-Lcz-70" value="Complaint" style="rounded=0;whiteSpace=wrap;html=1;movable=1;resizable=1;rotatable=1;deletable=1;editable=1;locked=0;connectable=1;" parent="1" vertex="1">
          <mxGeometry x="185" y="790" width="80" height="40" as="geometry" />
        </mxCell>
        <mxCell id="Af3uR9SBYssmEKGf-Lcz-72" style="edgeStyle=orthogonalEdgeStyle;rounded=0;orthogonalLoop=1;jettySize=auto;html=1;exitX=1;exitY=0.5;exitDx=0;exitDy=0;entryX=0;entryY=0.5;entryDx=0;entryDy=0;movable=1;resizable=1;rotatable=1;deletable=1;editable=1;locked=0;connectable=1;" parent="1" source="Af3uR9SBYssmEKGf-Lcz-69" target="Af3uR9SBYssmEKGf-Lcz-70" edge="1">
          <mxGeometry relative="1" as="geometry" />
        </mxCell>
        <mxCell id="Af3uR9SBYssmEKGf-Lcz-74" style="edgeStyle=orthogonalEdgeStyle;rounded=0;orthogonalLoop=1;jettySize=auto;html=1;exitX=1;exitY=0.5;exitDx=0;exitDy=0;movable=1;resizable=1;rotatable=1;deletable=1;editable=1;locked=0;connectable=1;" parent="1" source="Af3uR9SBYssmEKGf-Lcz-77" target="Af3uR9SBYssmEKGf-Lcz-118" edge="1">
          <mxGeometry relative="1" as="geometry">
            <mxPoint x="795" y="809" as="sourcePoint" />
            <mxPoint x="737" y="809" as="targetPoint" />
          </mxGeometry>
        </mxCell>
        <mxCell id="GVtmrcHmTRKpdOicmMPX-5" style="edgeStyle=orthogonalEdgeStyle;rounded=0;orthogonalLoop=1;jettySize=auto;html=1;entryX=0.5;entryY=1;entryDx=0;entryDy=0;" parent="1" source="Af3uR9SBYssmEKGf-Lcz-75" target="Af3uR9SBYssmEKGf-Lcz-118" edge="1">
          <mxGeometry relative="1" as="geometry" />
        </mxCell>
        <mxCell id="Af3uR9SBYssmEKGf-Lcz-75" value="Correct Category" style="rounded=0;whiteSpace=wrap;html=1;movable=1;resizable=1;rotatable=1;deletable=1;editable=1;locked=0;connectable=1;" parent="1" vertex="1">
          <mxGeometry x="570" y="942" width="116" height="40" as="geometry" />
        </mxCell>
        <mxCell id="GVtmrcHmTRKpdOicmMPX-4" style="edgeStyle=orthogonalEdgeStyle;rounded=0;orthogonalLoop=1;jettySize=auto;html=1;entryX=0.5;entryY=0;entryDx=0;entryDy=0;" parent="1" source="Af3uR9SBYssmEKGf-Lcz-77" target="Af3uR9SBYssmEKGf-Lcz-75" edge="1">
          <mxGeometry relative="1" as="geometry" />
        </mxCell>
        <mxCell id="Af3uR9SBYssmEKGf-Lcz-77" value="Misclassified Complaint" style="rhombus;whiteSpace=wrap;html=1;movable=1;resizable=1;rotatable=1;deletable=1;editable=1;locked=0;connectable=1;" parent="1" vertex="1">
          <mxGeometry x="572.2" y="772.5" width="111" height="75" as="geometry" />
        </mxCell>
        <mxCell id="Af3uR9SBYssmEKGf-Lcz-78" value="No" style="text;html=1;align=center;verticalAlign=middle;resizable=1;points=[];autosize=1;strokeColor=none;fillColor=none;movable=1;rotatable=1;deletable=1;editable=1;locked=0;connectable=1;" parent="1" vertex="1">
          <mxGeometry x="679" y="785" width="33" height="26" as="geometry" />
        </mxCell>
        <mxCell id="Af3uR9SBYssmEKGf-Lcz-79" value="Yes" style="text;html=1;align=center;verticalAlign=middle;resizable=1;points=[];autosize=1;strokeColor=none;fillColor=none;movable=1;rotatable=1;deletable=1;editable=1;locked=0;connectable=1;" parent="1" vertex="1">
          <mxGeometry x="631" y="847.5" width="38" height="26" as="geometry" />
        </mxCell>
        <mxCell id="Af3uR9SBYssmEKGf-Lcz-119" style="edgeStyle=orthogonalEdgeStyle;rounded=0;orthogonalLoop=1;jettySize=auto;html=1;entryX=0;entryY=0.5;entryDx=0;entryDy=0;" parent="1" source="Af3uR9SBYssmEKGf-Lcz-84" target="Af3uR9SBYssmEKGf-Lcz-77" edge="1">
          <mxGeometry relative="1" as="geometry" />
        </mxCell>
        <mxCell id="GVtmrcHmTRKpdOicmMPX-6" style="edgeStyle=orthogonalEdgeStyle;rounded=0;orthogonalLoop=1;jettySize=auto;html=1;entryX=0.25;entryY=1;entryDx=0;entryDy=0;" parent="1" source="Af3uR9SBYssmEKGf-Lcz-84" target="Af3uR9SBYssmEKGf-Lcz-115" edge="1">
          <mxGeometry relative="1" as="geometry">
            <Array as="points">
              <mxPoint x="472" y="1019" />
              <mxPoint x="366" y="1019" />
            </Array>
          </mxGeometry>
        </mxCell>
        <mxCell id="Af3uR9SBYssmEKGf-Lcz-84" value="Categorized Complaint" style="rhombus;whiteSpace=wrap;html=1;movable=1;resizable=1;rotatable=1;deletable=1;editable=1;locked=0;connectable=1;" parent="1" vertex="1">
          <mxGeometry x="416" y="900" width="111" height="75" as="geometry" />
        </mxCell>
        <mxCell id="Af3uR9SBYssmEKGf-Lcz-85" value="Yes" style="text;html=1;align=center;verticalAlign=middle;resizable=1;points=[];autosize=1;strokeColor=none;fillColor=none;movable=1;rotatable=1;deletable=1;editable=1;locked=0;connectable=1;" parent="1" vertex="1">
          <mxGeometry x="515" y="914" width="38" height="26" as="geometry" />
        </mxCell>
        <mxCell id="Af3uR9SBYssmEKGf-Lcz-87" value="Constituent" style="rounded=0;whiteSpace=wrap;html=1;movable=1;resizable=1;rotatable=1;deletable=1;editable=1;locked=0;connectable=1;" parent="1" vertex="1">
          <mxGeometry x="41.2" y="90" width="100" height="40" as="geometry" />
        </mxCell>
        <mxCell id="Af3uR9SBYssmEKGf-Lcz-88" value="Complaint" style="rounded=0;whiteSpace=wrap;html=1;movable=1;resizable=1;rotatable=1;deletable=1;editable=1;locked=0;connectable=1;" parent="1" vertex="1">
          <mxGeometry x="191.2" y="90" width="100" height="40" as="geometry" />
        </mxCell>
        <mxCell id="Af3uR9SBYssmEKGf-Lcz-89" value="Assistant &amp;amp; Representative" style="rounded=0;whiteSpace=wrap;html=1;movable=1;resizable=1;rotatable=1;deletable=1;editable=1;locked=0;connectable=1;" parent="1" vertex="1">
          <mxGeometry x="341.2" y="90" width="180" height="40" as="geometry" />
        </mxCell>
        <mxCell id="Af3uR9SBYssmEKGf-Lcz-91" style="edgeStyle=orthogonalEdgeStyle;rounded=0;orthogonalLoop=1;jettySize=auto;html=1;exitX=1;exitY=0.5;exitDx=0;exitDy=0;entryX=0;entryY=0.5;entryDx=0;entryDy=0;movable=1;resizable=1;rotatable=1;deletable=1;editable=1;locked=0;connectable=1;" parent="1" source="Af3uR9SBYssmEKGf-Lcz-87" target="Af3uR9SBYssmEKGf-Lcz-88" edge="1">
          <mxGeometry relative="1" as="geometry" />
        </mxCell>
        <mxCell id="Af3uR9SBYssmEKGf-Lcz-92" style="edgeStyle=orthogonalEdgeStyle;rounded=0;orthogonalLoop=1;jettySize=auto;html=1;exitX=1;exitY=0.5;exitDx=0;exitDy=0;entryX=0;entryY=0.5;entryDx=0;entryDy=0;movable=1;resizable=1;rotatable=1;deletable=1;editable=1;locked=0;connectable=1;" parent="1" source="Af3uR9SBYssmEKGf-Lcz-88" target="Af3uR9SBYssmEKGf-Lcz-89" edge="1">
          <mxGeometry relative="1" as="geometry" />
        </mxCell>
        <mxCell id="Af3uR9SBYssmEKGf-Lcz-94" value="&lt;b&gt;&lt;font style=&quot;font-size: 18px;&quot;&gt;Route complaint to Representative &amp;amp; Assistant(If any)&lt;/font&gt;&lt;/b&gt;" style="text;html=1;align=left;verticalAlign=middle;whiteSpace=wrap;rounded=0;movable=1;resizable=1;rotatable=1;deletable=1;editable=1;locked=0;connectable=1;" parent="1" vertex="1">
          <mxGeometry x="41.2" y="32" width="787.8" height="47" as="geometry" />
        </mxCell>
        <mxCell id="Af3uR9SBYssmEKGf-Lcz-103" value="Constituent" style="rounded=0;whiteSpace=wrap;html=1;movable=1;resizable=1;rotatable=1;deletable=1;editable=1;locked=0;connectable=1;" parent="1" vertex="1">
          <mxGeometry x="44.2" y="220" width="100" height="40" as="geometry" />
        </mxCell>
        <mxCell id="Af3uR9SBYssmEKGf-Lcz-104" value="Complaint" style="rounded=0;whiteSpace=wrap;html=1;movable=1;resizable=1;rotatable=1;deletable=1;editable=1;locked=0;connectable=1;" parent="1" vertex="1">
          <mxGeometry x="194.2" y="220" width="100" height="40" as="geometry" />
        </mxCell>
        <mxCell id="Af3uR9SBYssmEKGf-Lcz-105" value="Representative" style="rounded=0;whiteSpace=wrap;html=1;movable=1;resizable=1;rotatable=1;deletable=1;editable=1;locked=0;connectable=1;" parent="1" vertex="1">
          <mxGeometry x="344.2" y="220" width="125.8" height="40" as="geometry" />
        </mxCell>
        <mxCell id="Af3uR9SBYssmEKGf-Lcz-106" value="Respective Department" style="rounded=0;whiteSpace=wrap;html=1;movable=1;resizable=1;rotatable=1;deletable=1;editable=1;locked=0;connectable=1;" parent="1" vertex="1">
          <mxGeometry x="524.2" y="220" width="150" height="40" as="geometry" />
        </mxCell>
        <mxCell id="Af3uR9SBYssmEKGf-Lcz-107" style="edgeStyle=orthogonalEdgeStyle;rounded=0;orthogonalLoop=1;jettySize=auto;html=1;exitX=1;exitY=0.5;exitDx=0;exitDy=0;entryX=0;entryY=0.5;entryDx=0;entryDy=0;movable=1;resizable=1;rotatable=1;deletable=1;editable=1;locked=0;connectable=1;" parent="1" source="Af3uR9SBYssmEKGf-Lcz-103" target="Af3uR9SBYssmEKGf-Lcz-104" edge="1">
          <mxGeometry relative="1" as="geometry" />
        </mxCell>
        <mxCell id="Af3uR9SBYssmEKGf-Lcz-108" style="edgeStyle=orthogonalEdgeStyle;rounded=0;orthogonalLoop=1;jettySize=auto;html=1;exitX=1;exitY=0.5;exitDx=0;exitDy=0;entryX=0;entryY=0.5;entryDx=0;entryDy=0;movable=1;resizable=1;rotatable=1;deletable=1;editable=1;locked=0;connectable=1;" parent="1" source="Af3uR9SBYssmEKGf-Lcz-104" target="Af3uR9SBYssmEKGf-Lcz-105" edge="1">
          <mxGeometry relative="1" as="geometry" />
        </mxCell>
        <mxCell id="Af3uR9SBYssmEKGf-Lcz-109" style="edgeStyle=orthogonalEdgeStyle;rounded=0;orthogonalLoop=1;jettySize=auto;html=1;exitX=1;exitY=0.5;exitDx=0;exitDy=0;entryX=0;entryY=0.5;entryDx=0;entryDy=0;movable=1;resizable=1;rotatable=1;deletable=1;editable=1;locked=0;connectable=1;" parent="1" source="Af3uR9SBYssmEKGf-Lcz-105" target="Af3uR9SBYssmEKGf-Lcz-106" edge="1">
          <mxGeometry relative="1" as="geometry" />
        </mxCell>
        <mxCell id="Af3uR9SBYssmEKGf-Lcz-110" value="&lt;b&gt;&lt;font style=&quot;font-size: 18px;&quot;&gt;Route complaint to Representative then route to Respective department&lt;/font&gt;&lt;/b&gt;" style="text;html=1;align=left;verticalAlign=middle;whiteSpace=wrap;rounded=0;movable=1;resizable=1;rotatable=1;deletable=1;editable=1;locked=0;connectable=1;" parent="1" vertex="1">
          <mxGeometry x="44.2" y="162" width="787.8" height="47" as="geometry" />
        </mxCell>
        <mxCell id="Af3uR9SBYssmEKGf-Lcz-113" value="Exclude Department Module" style="rounded=1;whiteSpace=wrap;html=1;fillColor=none;" parent="1" vertex="1">
          <mxGeometry x="595" y="41" width="181" height="97" as="geometry" />
        </mxCell>
        <mxCell id="Af3uR9SBYssmEKGf-Lcz-114" value="Exclude Assistant Module" style="rounded=1;whiteSpace=wrap;html=1;fillColor=none;" parent="1" vertex="1">
          <mxGeometry x="705" y="171" width="131" height="85" as="geometry" />
        </mxCell>
        <mxCell id="Af3uR9SBYssmEKGf-Lcz-117" style="edgeStyle=orthogonalEdgeStyle;rounded=0;orthogonalLoop=1;jettySize=auto;html=1;entryX=0;entryY=0.5;entryDx=0;entryDy=0;exitX=0.5;exitY=1;exitDx=0;exitDy=0;" parent="1" source="Af3uR9SBYssmEKGf-Lcz-115" target="Af3uR9SBYssmEKGf-Lcz-84" edge="1">
          <mxGeometry relative="1" as="geometry" />
        </mxCell>
        <mxCell id="Af3uR9SBYssmEKGf-Lcz-115" value="Assistant &amp;amp; Representative" style="rounded=0;whiteSpace=wrap;html=1;movable=1;resizable=1;rotatable=1;deletable=1;editable=1;locked=0;connectable=1;" parent="1" vertex="1">
          <mxGeometry x="341.1" y="790" width="100.9" height="40" as="geometry" />
        </mxCell>
        <mxCell id="Af3uR9SBYssmEKGf-Lcz-116" style="edgeStyle=orthogonalEdgeStyle;rounded=0;orthogonalLoop=1;jettySize=auto;html=1;movable=1;resizable=1;rotatable=1;deletable=1;editable=1;locked=0;connectable=1;" parent="1" source="Af3uR9SBYssmEKGf-Lcz-70" target="Af3uR9SBYssmEKGf-Lcz-115" edge="1">
          <mxGeometry relative="1" as="geometry">
            <mxPoint x="351" y="810" as="targetPoint" />
            <mxPoint x="285" y="810" as="sourcePoint" />
          </mxGeometry>
        </mxCell>
        <mxCell id="Af3uR9SBYssmEKGf-Lcz-118" value="Respective Department" style="rounded=0;whiteSpace=wrap;html=1;movable=1;resizable=1;rotatable=1;deletable=1;editable=1;locked=0;connectable=1;" parent="1" vertex="1">
          <mxGeometry x="738" y="790" width="93" height="40" as="geometry" />
        </mxCell>
        <mxCell id="GVtmrcHmTRKpdOicmMPX-7" value="No" style="text;html=1;align=center;verticalAlign=middle;resizable=1;points=[];autosize=1;strokeColor=none;fillColor=none;movable=1;rotatable=1;deletable=1;editable=1;locked=0;connectable=1;" parent="1" vertex="1">
          <mxGeometry x="445" y="975" width="33" height="26" as="geometry" />
        </mxCell>
      </root>
    </mxGraphModel>
  </diagram>
</mxfile>
